<svg xmlns="http://www.w3.org/2000/svg" version="1.1" viewBox="1.6903632879257202 1.013625979423523 378.1822814941406 327.74658203125" width="381.00" height="331.00">
<g stroke-width="2.00" fill="none" stroke-linecap="butt">
<path stroke="#a48a74" stroke-opacity="0.996" d="&#10;  M 114.87 191.29&#10;  Q 114.76 190.77 114.36 191.13&#10;  Q 114.00 191.45 114.08 192.05&#10;  A 0.33 0.32 -4.8 0 0 114.42 192.33&#10;  Q 115.07 192.30 114.87 191.29" data-c-stroke="8e8b8c" data-o-stroke="0.996"/>
<path stroke="#a48a74" stroke-opacity="0.996" d="&#10;  M 277.4109 194.7376&#10;  A 0.26 0.26 0.0 0 0 277.3584 194.3737&#10;  L 277.1983 194.2539&#10;  A 0.26 0.26 0.0 0 0 276.8343 194.3063&#10;  L 270.2091 203.1624&#10;  A 0.26 0.26 0.0 0 0 270.2616 203.5263&#10;  L 270.4217 203.6461&#10;  A 0.26 0.26 0.0 0 0 270.7857 203.5937&#10;  L 277.4109 194.7376" data-c-stroke="8e8b8c" data-o-stroke="0.996"/>
<path stroke="#a48a74" stroke-opacity="0.996" d="&#10;  M 267.2469 207.5978&#10;  A 0.35 0.35 0.0 0 0 267.1978 207.1053&#10;  L 267.1823 207.0926&#10;  A 0.35 0.35 0.0 0 0 266.6898 207.1418&#10;  L 257.1131 218.8422&#10;  A 0.35 0.35 0.0 0 0 257.1622 219.3347&#10;  L 257.1777 219.3474&#10;  A 0.35 0.35 0.0 0 0 257.6702 219.2982&#10;  L 267.2469 207.5978" data-c-stroke="8e8b8c" data-o-stroke="0.996"/>
<path stroke="#a48a74" stroke-opacity="0.996" d="&#10;  M 273.35 207.42&#10;  Q 270.54 209.44 269.26 212.66&#10;  Q 269.24 212.71 269.29 212.73&#10;  L 269.56 212.85&#10;  Q 269.77 212.95 269.88 212.74&#10;  Q 271.29 209.96 273.45 207.73&#10;  Q 273.67 207.51 273.62 207.45&#10;  L 273.61 207.45&#10;  Q 273.49 207.32 273.35 207.42" data-c-stroke="8e8b8c" data-o-stroke="0.996"/>
<path stroke="#a48a74" stroke-opacity="0.996" d="&#10;  M 257.6600 259.1333&#10;  A 1.02 0.73 120.0 0 0 258.8022 258.6150&#10;  A 1.02 0.73 120.0 0 0 258.6800 257.3667&#10;  A 1.02 0.73 120.0 0 0 257.5378 257.8850&#10;  A 1.02 0.73 120.0 0 0 257.6600 259.1333" data-c-stroke="8e8b8c" data-o-stroke="0.996"/>
<path stroke="#a48a74" stroke-opacity="0.996" d="&#10;  M 325.12 305.49&#10;  Q 325.03 305.77 325.45 305.52&#10;  Q 325.65 305.40 325.73 305.18&#10;  Q 326.06 304.24 325.68 303.20&#10;  Q 325.48 302.67 325.05 303.03&#10;  Q 324.27 303.67 324.61 305.04&#10;  Q 324.65 305.20 324.97 305.25&#10;  Q 325.19 305.28 325.12 305.49" data-c-stroke="8e8b8c" data-o-stroke="0.996"/>
</g>
<path fill="#064783" d="&#10;  M 73.4957 40.0670&#10;  A 19.55 18.71 86.2 0 1 53.5311 21.8000&#10;  A 19.55 18.71 86.2 0 1 70.9043 1.0530&#10;  A 19.55 18.71 86.2 0 1 90.8689 19.3200&#10;  A 19.55 18.71 86.2 0 1 73.4957 40.0670&#10;  Z&#10;  M 77.5565 30.3068&#10;  A 11.37 11.12 59.7 0 0 81.4210 14.8797&#10;  A 11.37 11.12 59.7 0 0 66.0835 10.6732&#10;  A 11.37 11.12 59.7 0 0 62.2190 26.1003&#10;  A 11.37 11.12 59.7 0 0 77.5565 30.3068&#10;  Z" data-c-fill="454544"/>
<path fill="#064783" d="&#10;  M 70.00 14.94&#10;  Q 73.48 12.58 76.82 15.40&#10;  Q 77.19 15.71 77.00 16.17&#10;  C 75.54 19.68 76.98 22.81 75.02 26.27&#10;  A 0.33 0.33 0.0 0 1 74.63 26.41&#10;  L 74.33 26.30&#10;  Q 74.26 26.28 74.29 26.21&#10;  C 75.72 22.55 76.66 12.72 70.00 14.94&#10;  Z" data-c-fill="454544"/>
<path fill="#064783" d="&#10;  M 70.00 14.94&#10;  Q 68.61 16.44 67.99 18.26&#10;  Q 67.87 18.63 67.69 18.29&#10;  Q 67.58 18.07 67.68 17.74&#10;  Q 68.26 15.86 70.00 14.94&#10;  Z" data-c-fill="454544"/>
<path fill="#064783" d="&#10;  M 69.54 26.02&#10;  L 70.42 26.60&#10;  A 0.25 0.25 0.0 0 1 70.21 27.05&#10;  Q 68.71 26.64 68.14 25.22&#10;  Q 67.76 24.27 68.49 24.99&#10;  L 69.43 25.92&#10;  A 0.56 0.43 79.4 0 0 69.54 26.02&#10;  Z" data-c-fill="454544"/>
<path fill="#064783" d="&#10;  M 283.22 265.24&#10;  C 289.66 268.17 298.18 265.15 303.43 261.04&#10;  C 308.96 256.71 314.42 251.90 320.48 249.64&#10;  C 337.98 243.11 350.73 248.23 366.14 257.17&#10;  Q 369.59 259.16 371.98 261.89&#10;  Q 376.15 266.63 378.15 270.44&#10;  C 379.09 272.23 377.34 273.25 375.75 273.54&#10;  C 369.29 274.71 367.22 275.03 362.96 270.38&#10;  C 356.42 263.23 345.37 259.40 336.10 258.47&#10;  Q 331.75 258.04 328.09 259.52&#10;  Q 322.56 261.75 316.98 266.47&#10;  C 312.02 270.67 302.77 275.45 295.32 276.53&#10;  C 293.13 276.85 290.95 277.57 288.85 277.59&#10;  C 276.31 277.71 267.66 272.22 257.28 266.21&#10;  C 253.46 263.99 250.81 260.64 245.69 259.36&#10;  Q 242.89 258.66 238.28 259.34&#10;  Q 232.77 260.16 227.24 261.01&#10;  C 225.35 261.30 224.08 261.81 222.68 263.28&#10;  Q 216.47 269.83 208.56 274.28&#10;  C 203.97 276.87 197.71 277.15 192.57 277.36&#10;  C 185.61 277.65 179.58 275.99 173.34 273.25&#10;  C 169.21 271.43 167.23 267.94 163.28 266.07&#10;  C 160.11 264.57 157.01 262.23 154.25 261.02&#10;  Q 145.73 257.28 137.25 258.61&#10;  C 130.80 259.61 125.58 264.86 120.39 268.47&#10;  C 115.41 271.93 108.95 274.10 103.38 276.69&#10;  C 100.84 277.87 101.81 280.01 101.14 281.97&#10;  Q 100.79 283.01 100.37 284.03&#10;  A 1.17 1.15 42.1 0 0 100.43 285.03&#10;  Q 101.42 286.82 100.55 288.67&#10;  A 3.07 2.86 61.4 0 0 100.29 289.69&#10;  L 98.73 311.86&#10;  Q 98.59 313.85 100.56 313.52&#10;  C 106.26 312.56 110.80 309.27 115.84 306.76&#10;  C 120.31 304.53 125.04 301.10 130.14 298.92&#10;  C 135.46 296.65 144.52 296.94 150.16 297.87&#10;  Q 153.15 298.37 157.54 300.50&#10;  C 161.73 302.53 166.04 303.91 169.95 306.29&#10;  C 179.29 311.97 188.57 317.26 199.25 313.94&#10;  C 204.58 312.28 209.54 307.83 214.80 305.18&#10;  C 217.70 303.72 220.69 301.81 223.40 300.71&#10;  C 230.71 297.76 239.03 296.51 246.80 298.22&#10;  C 250.44 299.03 254.52 300.95 258.29 302.49&#10;  C 272.11 308.15 280.21 318.40 296.85 313.17&#10;  Q 299.77 312.26 305.57 308.86&#10;  C 310.22 306.14 314.25 304.08 319.63 300.95&#10;  C 326.83 296.75 337.92 296.15 346.16 298.68&#10;  C 351.31 300.27 356.27 301.73 360.92 304.56&#10;  Q 368.64 309.27 375.97 314.57&#10;  Q 377.97 316.02 379.50 317.72&#10;  A 1.47 1.47 0.0 0 1 379.29 319.87&#10;  C 376.63 321.91 372.67 325.44 369.28 323.37&#10;  C 358.21 316.62 344.31 307.26 330.59 310.32&#10;  Q 323.92 311.81 322.05 313.06&#10;  C 317.53 316.10 312.90 319.60 308.18 321.65&#10;  Q 299.74 325.31 290.60 326.19&#10;  C 283.83 326.84 276.87 325.11 270.71 322.58&#10;  C 266.78 320.97 263.24 317.94 259.56 316.11&#10;  Q 256.27 314.47 253.08 312.66&#10;  C 247.49 309.48 243.22 309.42 236.68 309.63&#10;  C 231.88 309.79 225.37 312.48 221.42 315.22&#10;  C 210.08 323.12 197.95 328.59 184.13 325.68&#10;  C 175.27 323.81 167.92 319.30 160.05 315.07&#10;  Q 152.06 310.77 148.53 309.93&#10;  C 138.77 307.59 129.55 311.88 121.60 317.63&#10;  Q 117.54 320.57 114.62 321.82&#10;  C 110.21 323.70 105.89 325.57 100.97 325.66&#10;  C 97.10 325.73 94.43 325.69 89.67 326.15&#10;  C 81.86 326.91 71.21 321.31 65.29 317.25&#10;  C 59.02 312.95 53.93 310.89 46.99 309.25&#10;  Q 44.23 308.60 41.52 309.25&#10;  Q 32.84 311.31 25.24 315.98&#10;  C 22.73 317.52 20.06 317.43 17.87 319.51&#10;  C 15.03 322.20 4.32 328.07 3.74 320.51&#10;  C 3.42 316.30 3.04 312.34 6.93 310.65&#10;  C 14.91 307.19 22.74 303.11 30.53 299.23&#10;  C 34.69 297.16 38.89 297.75 43.29 297.17&#10;  C 47.55 296.60 53.65 296.87 57.40 298.82&#10;  Q 67.32 304.00 77.23 309.18&#10;  C 79.29 310.25 82.04 311.10 84.21 312.48&#10;  A 1.42 1.42 0.0 0 0 86.39 311.37&#10;  L 88.44 278.85&#10;  A 0.39 0.39 0.0 0 0 88.16 278.45&#10;  C 83.88 277.22 79.17 276.19 75.36 274.48&#10;  C 65.57 270.09 59.48 261.37 48.82 258.34&#10;  Q 46.37 257.65 43.14 258.28&#10;  C 31.79 260.52 23.43 266.13 12.39 273.65&#10;  C 9.06 275.93 3.59 272.53 2.06 269.45&#10;  C 0.19 265.66 5.89 262.35 8.54 260.91&#10;  C 17.55 256.04 24.09 250.25 32.84 247.77&#10;  C 35.00 247.15 38.09 245.34 40.37 245.34&#10;  C 46.61 245.36 51.90 245.13 58.40 247.72&#10;  Q 61.99 249.15 65.63 251.98&#10;  C 71.58 256.64 76.33 260.46 84.14 263.41&#10;  Q 85.71 264.00 91.76 263.74&#10;  Q 92.23 263.71 92.40 263.27&#10;  Q 94.38 257.87 94.38 256.04&#10;  C 94.41 248.00 95.86 242.76 98.18 233.04&#10;  C 100.63 222.80 104.33 212.65 107.49 202.75&#10;  Q 108.08 200.92 105.95 196.53&#10;  Q 102.56 189.50 99.42 182.35&#10;  C 98.66 180.61 95.20 178.26 93.64 176.44&#10;  C 84.58 165.85 74.62 167.15 61.16 169.10&#10;  Q 53.86 170.15 46.70 172.11&#10;  C 41.05 173.66 34.55 171.62 34.36 164.76&#10;  C 34.20 159.33 39.61 150.85 42.95 146.64&#10;  Q 50.35 137.34 53.32 134.32&#10;  Q 57.44 130.13 67.24 122.97&#10;  C 69.71 121.16 71.28 118.55 74.40 116.97&#10;  Q 82.24 112.99 90.08 109.05&#10;  Q 96.86 105.64 111.51 102.56&#10;  C 129.12 98.86 146.23 103.67 163.04 111.02&#10;  A 2.65 2.65 0.0 0 0 166.22 110.19&#10;  C 169.57 105.74 172.77 101.11 176.44 97.07&#10;  Q 183.42 89.39 190.68 81.97&#10;  C 194.38 78.18 198.66 75.37 202.99 72.39&#10;  C 206.50 69.96 210.44 68.31 214.37 66.29&#10;  Q 216.37 65.27 219.18 64.46&#10;  C 223.52 63.21 227.45 60.71 231.42 59.56&#10;  Q 239.53 57.21 242.25 56.81&#10;  Q 249.32 55.77 261.04 56.42&#10;  C 263.58 56.56 267.55 57.28 269.98 58.29&#10;  C 274.32 60.11 279.20 61.27 283.17 62.89&#10;  Q 291.49 66.28 299.79 69.70&#10;  Q 300.89 70.15 302.16 69.17&#10;  C 307.30 65.18 312.09 59.30 315.87 55.63&#10;  C 318.93 52.66 321.83 49.18 325.28 47.10&#10;  Q 329.25 44.71 333.72 43.49&#10;  Q 338.04 42.32 342.29 43.36&#10;  C 349.86 45.20 359.32 51.59 360.37 60.09&#10;  C 360.69 62.66 361.53 64.69 360.79 67.25&#10;  C 357.64 78.18 352.97 86.46 345.31 94.90&#10;  C 341.68 98.89 336.59 101.35 332.09 104.17&#10;  C 326.78 107.50 321.92 109.29 316.24 110.50&#10;  Q 313.89 111.01 314.32 113.10&#10;  Q 314.43 113.61 314.30 114.11&#10;  C 312.08 122.96 310.45 131.87 307.89 140.71&#10;  C 306.66 144.93 305.70 149.35 304.38 153.34&#10;  Q 301.93 160.75 299.39 168.12&#10;  C 297.82 172.68 295.77 178.07 293.33 182.36&#10;  Q 290.40 187.49 287.88 192.84&#10;  Q 287.67 193.29 288.02 193.65&#10;  Q 292.97 198.65 296.06 202.96&#10;  C 298.16 205.91 298.96 211.47 299.67 215.11&#10;  Q 300.07 217.17 299.79 220.41&#10;  C 299.49 223.90 300.43 227.28 299.86 230.52&#10;  Q 299.22 234.20 298.22 237.78&#10;  C 296.78 242.92 293.65 248.49 290.96 254.22&#10;  C 289.22 257.94 285.25 260.85 283.02 264.59&#10;  Q 282.76 265.03 283.22 265.24&#10;  Z&#10;  M 268.21 106.92&#10;  A 2.22 2.21 -2.6 0 1 269.80 105.19&#10;  C 275.72 103.59 282.27 104.57 288.41 103.73&#10;  C 291.65 103.28 295.88 102.11 299.71 101.61&#10;  Q 305.79 100.81 308.17 100.21&#10;  C 315.11 98.45 322.02 96.54 328.03 92.31&#10;  C 331.74 89.70 337.00 87.36 339.56 84.04&#10;  C 343.14 79.42 353.73 62.32 346.12 57.63&#10;  Q 339.06 53.28 332.15 57.61&#10;  C 329.48 59.29 326.77 62.48 324.14 64.90&#10;  Q 321.15 67.65 318.42 70.67&#10;  C 316.12 73.21 313.77 75.93 310.87 77.83&#10;  C 308.56 79.34 306.09 81.43 303.72 82.14&#10;  C 299.95 83.27 294.55 81.75 291.11 79.99&#10;  Q 281.93 75.28 272.28 71.59&#10;  C 251.09 63.49 229.75 71.07 211.09 81.73&#10;  Q 207.08 84.03 203.06 87.65&#10;  C 197.76 92.43 191.97 96.81 187.34 102.47&#10;  Q 183.45 107.23 181.48 109.39&#10;  Q 172.64 119.08 165.10 129.81&#10;  C 162.88 132.98 160.02 135.11 157.90 138.54&#10;  C 151.80 148.35 143.73 158.51 138.34 167.11&#10;  C 136.99 169.27 136.16 172.12 134.55 174.46&#10;  C 126.37 186.37 123.16 198.67 117.82 211.29&#10;  C 115.27 217.31 113.45 224.32 111.54 229.41&#10;  C 110.55 232.06 110.17 234.61 109.67 237.29&#10;  C 108.96 241.11 107.17 245.41 106.71 249.25&#10;  Q 106.03 254.81 104.70 260.42&#10;  A 0.66 0.66 0.0 0 0 105.28 261.23&#10;  Q 105.79 261.28 106.38 260.81&#10;  C 110.18 257.83 114.91 257.79 118.72 254.78&#10;  C 121.56 252.53 124.28 250.14 127.54 248.68&#10;  C 131.72 246.82 135.16 246.60 139.18 246.02&#10;  C 148.62 244.67 157.75 249.15 165.75 253.51&#10;  C 167.53 254.47 170.04 256.62 172.02 257.20&#10;  C 181.99 260.10 192.20 232.29 194.96 225.47&#10;  C 197.83 218.38 198.59 214.01 198.73 206.68&#10;  C 198.84 200.23 200.21 193.74 200.71 187.25&#10;  Q 201.20 181.06 205.39 172.35&#10;  C 207.17 168.63 209.97 165.92 214.01 165.30&#10;  C 216.35 164.95 218.12 164.32 220.31 165.34&#10;  C 225.83 167.92 230.50 178.04 232.58 183.25&#10;  C 234.16 187.24 234.91 192.12 235.90 196.56&#10;  C 236.55 199.43 236.35 202.45 236.78 205.45&#10;  C 237.61 211.14 237.53 215.51 237.29 220.78&#10;  C 237.15 223.94 236.21 227.24 235.84 230.56&#10;  C 235.21 236.27 233.68 241.28 232.91 246.72&#10;  Q 232.79 247.58 233.66 247.52&#10;  Q 236.51 247.33 239.23 247.82&#10;  C 242.07 248.32 247.03 248.49 249.77 250.52&#10;  Q 253.03 252.92 251.13 249.35&#10;  C 250.55 248.26 249.41 247.31 248.94 245.77&#10;  C 247.02 239.48 247.70 234.97 249.06 228.12&#10;  C 250.26 222.09 254.68 214.93 259.03 210.64&#10;  C 264.13 205.63 268.51 198.53 271.66 194.15&#10;  C 283.73 177.34 291.13 158.23 296.84 138.48&#10;  C 298.89 131.39 299.88 123.44 301.38 115.89&#10;  A 1.24 1.24 0.0 0 0 299.87 114.44&#10;  Q 289.58 116.89 279.19 116.53&#10;  C 273.73 116.34 266.98 113.42 268.21 106.92&#10;  Z&#10;  M 115.31 183.69&#10;  C 117.20 178.30 120.51 174.41 122.92 169.55&#10;  C 127.11 161.07 132.33 154.62 137.25 147.12&#10;  C 140.67 141.92 144.40 137.65 147.82 132.73&#10;  C 150.22 129.30 154.04 125.88 156.19 121.41&#10;  Q 156.39 120.99 155.95 120.84&#10;  C 148.41 118.35 140.63 115.74 132.77 114.54&#10;  Q 126.06 113.52 123.75 113.47&#10;  Q 111.87 113.21 98.53 118.88&#10;  Q 92.83 121.30 87.20 123.90&#10;  C 82.24 126.20 77.79 129.41 73.16 132.42&#10;  C 70.45 134.18 68.45 137.04 65.97 139.22&#10;  Q 57.58 146.61 50.69 156.25&#10;  A 0.74 0.73 -70.2 0 0 51.23 157.41&#10;  C 55.90 157.76 60.84 156.75 65.51 156.45&#10;  Q 66.96 156.36 69.97 155.90&#10;  C 84.86 153.64 99.00 159.89 106.60 172.91&#10;  Q 109.81 178.42 113.41 183.93&#10;  A 1.07 1.07 0.0 0 0 115.31 183.69&#10;  Z&#10;  M 210.59 211.04&#10;  C 210.03 219.05 206.93 226.44 204.10 234.18&#10;  C 202.55 238.41 200.14 242.79 198.35 247.25&#10;  C 195.97 253.18 192.02 257.78 189.48 263.70&#10;  Q 189.28 264.16 188.92 264.52&#10;  L 188.62 264.82&#10;  Q 188.19 265.23 188.76 265.42&#10;  Q 196.41 267.91 203.29 264.38&#10;  C 208.26 261.83 211.75 257.21 215.40 253.19&#10;  C 223.41 244.34 224.37 230.72 226.30 218.10&#10;  C 226.67 215.67 226.51 212.81 226.11 210.35&#10;  C 225.16 204.42 224.77 198.32 223.60 192.53&#10;  C 222.64 187.80 222.46 182.20 218.01 179.15&#10;  C 216.31 177.98 214.51 177.81 213.89 180.22&#10;  C 211.40 189.90 211.32 200.64 210.59 211.04&#10;  Z&#10;  M 114.87 191.29&#10;  Q 114.76 190.77 114.36 191.13&#10;  Q 114.00 191.45 114.08 192.05&#10;  A 0.33 0.32 -4.8 0 0 114.42 192.33&#10;  Q 115.07 192.30 114.87 191.29&#10;  Z&#10;  M 277.4109 194.7376&#10;  A 0.26 0.26 0.0 0 0 277.3584 194.3737&#10;  L 277.1983 194.2539&#10;  A 0.26 0.26 0.0 0 0 276.8343 194.3063&#10;  L 270.2091 203.1624&#10;  A 0.26 0.26 0.0 0 0 270.2616 203.5263&#10;  L 270.4217 203.6461&#10;  A 0.26 0.26 0.0 0 0 270.7857 203.5937&#10;  L 277.4109 194.7376&#10;  Z&#10;  M 276.72 254.21&#10;  C 282.67 250.33 287.69 233.15 287.72 226.35&#10;  C 287.76 218.44 288.40 213.00 283.16 206.57&#10;  A 2.16 2.16 0.0 0 0 280.03 206.33&#10;  C 275.11 210.83 270.80 216.42 266.57 221.56&#10;  C 262.27 226.79 260.20 237.79 263.46 244.44&#10;  C 264.99 247.57 265.44 251.23 267.58 253.71&#10;  Q 269.33 255.75 271.58 257.34&#10;  Q 271.99 257.63 272.38 257.32&#10;  Q 274.49 255.66 276.72 254.21&#10;  Z&#10;  M 267.2469 207.5978&#10;  A 0.35 0.35 0.0 0 0 267.1978 207.1053&#10;  L 267.1823 207.0926&#10;  A 0.35 0.35 0.0 0 0 266.6898 207.1418&#10;  L 257.1131 218.8422&#10;  A 0.35 0.35 0.0 0 0 257.1622 219.3347&#10;  L 257.1777 219.3474&#10;  A 0.35 0.35 0.0 0 0 257.6702 219.2982&#10;  L 267.2469 207.5978&#10;  Z&#10;  M 273.35 207.42&#10;  Q 270.54 209.44 269.26 212.66&#10;  Q 269.24 212.71 269.29 212.73&#10;  L 269.56 212.85&#10;  Q 269.77 212.95 269.88 212.74&#10;  Q 271.29 209.96 273.45 207.73&#10;  Q 273.67 207.51 273.62 207.45&#10;  L 273.61 207.45&#10;  Q 273.49 207.32 273.35 207.42&#10;  Z&#10;  M 257.6600 259.1333&#10;  A 1.02 0.73 120.0 0 0 258.8022 258.6150&#10;  A 1.02 0.73 120.0 0 0 258.6800 257.3667&#10;  A 1.02 0.73 120.0 0 0 257.5378 257.8850&#10;  A 1.02 0.73 120.0 0 0 257.6600 259.1333&#10;  Z&#10;  M 325.12 305.49&#10;  Q 325.03 305.77 325.45 305.52&#10;  Q 325.65 305.40 325.73 305.18&#10;  Q 326.06 304.24 325.68 303.20&#10;  Q 325.48 302.67 325.05 303.03&#10;  Q 324.27 303.67 324.61 305.04&#10;  Q 324.65 305.20 324.97 305.25&#10;  Q 325.19 305.28 325.12 305.49&#10;  Z" data-c-fill="454544"/>
<path fill="#064783" d="&#10;  M 90.22 75.47&#10;  C 89.21 80.83 87.78 85.58 82.91 88.61&#10;  Q 72.73 94.93 62.02 88.76&#10;  C 59.12 87.09 57.44 85.92 56.05 82.77&#10;  Q 53.27 76.45 54.58 69.99&#10;  C 55.55 65.22 60.17 57.78 65.76 56.71&#10;  C 68.96 56.10 71.83 55.20 75.09 55.77&#10;  C 84.07 57.32 87.09 61.44 89.82 70.09&#10;  Q 90.70 72.90 90.22 75.47&#10;  Z&#10;  M 75.0604 83.5079&#10;  A 10.00 9.79 72.9 0 0 81.4772 71.0713&#10;  A 10.00 9.79 72.9 0 0 69.1796 64.3921&#10;  A 10.00 9.79 72.9 0 0 62.7628 76.8287&#10;  A 10.00 9.79 72.9 0 0 75.0604 83.5079&#10;  Z" data-c-fill="454544"/>
<path fill="#064783" d="&#10;  M 240.88 121.08&#10;  Q 241.91 121.99 243.43 122.79&#10;  Q 244.17 123.19 244.12 124.01&#10;  A 0.56 0.56 0.0 0 1 243.53 124.53&#10;  C 240.78 124.41 238.31 123.66 235.51 123.54&#10;  C 232.90 123.43 230.35 122.05 227.93 123.28&#10;  A 0.85 0.84 -15.1 0 1 226.70 122.58&#10;  Q 226.30 115.08 230.71 109.43&#10;  C 233.18 106.28 235.15 103.11 238.29 100.71&#10;  C 242.95 97.15 264.55 85.02 267.47 95.32&#10;  Q 267.61 95.79 267.38 96.23&#10;  C 260.85 108.92 244.71 103.41 240.62 120.24&#10;  Q 240.50 120.74 240.88 121.08&#10;  Z" data-c-fill="454544"/>
<path fill="#6fa8dc" fill-opacity="0.992" d="&#10;  M 114.87 191.29&#10;  Q 115.07 192.30 114.42 192.33&#10;  A 0.33 0.32 -4.8 0 1 114.08 192.05&#10;  Q 114.00 191.45 114.36 191.13&#10;  Q 114.76 190.77 114.87 191.29&#10;  Z" data-c-fill="d8d1d4" data-o-fill="0.992"/>
<rect fill="#6fa8dc" fill-opacity="0.992" x="-0.36" y="-5.79" transform="translate(273.81,198.95) rotate(36.8)" width="0.72" height="11.58" rx="0.26" data-c-fill="d8d1d4" data-o-fill="0.992"/>
<rect fill="#6fa8dc" fill-opacity="0.992" x="-0.36" y="-7.91" transform="translate(262.18,213.22) rotate(39.3)" width="0.72" height="15.82" rx="0.35" data-c-fill="d8d1d4" data-o-fill="0.992"/>
<path fill="#6fa8dc" fill-opacity="0.992" d="&#10;  M 273.35 207.42&#10;  Q 273.49 207.32 273.61 207.45&#10;  L 273.62 207.45&#10;  Q 273.67 207.51 273.45 207.73&#10;  Q 271.29 209.96 269.88 212.74&#10;  Q 269.77 212.95 269.56 212.85&#10;  L 269.29 212.73&#10;  Q 269.24 212.71 269.26 212.66&#10;  Q 270.54 209.44 273.35 207.42&#10;  Z" data-c-fill="d8d1d4" data-o-fill="0.992"/>
<ellipse fill="#6fa8dc" fill-opacity="0.992" cx="0.00" cy="0.00" transform="translate(258.17,258.25) rotate(120.0)" rx="1.02" ry="0.73" data-c-fill="d8d1d4" data-o-fill="0.992"/>
<path fill="#6fa8dc" fill-opacity="0.992" d="&#10;  M 324.97 305.25&#10;  Q 324.65 305.20 324.61 305.04&#10;  Q 324.27 303.67 325.05 303.03&#10;  Q 325.48 302.67 325.68 303.20&#10;  Q 326.06 304.24 325.73 305.18&#10;  Q 325.65 305.40 325.45 305.52&#10;  Q 325.03 305.77 325.12 305.49&#10;  Q 325.19 305.28 324.97 305.25&#10;  Z" data-c-fill="d8d1d4" data-o-fill="0.992"/>
<path fill="#064783" d="&#10;  M 279.67 327.25&#10;  Q 280.09 327.63 280.35 328.15&#10;  Q 280.64 328.73 279.99 328.74&#10;  L 279.48 328.76&#10;  Q 278.93 328.77 278.95 328.23&#10;  L 278.98 327.54&#10;  A 0.41 0.41 0.0 0 1 279.67 327.25&#10;  Z" data-c-fill="454544"/>
</svg>